<svg xmlns="http://www.w3.org/2000/svg" version="1.1" xmlns:xlink="http://www.w3.org/1999/xlink" xmlns:svgjs="http://svgjs.dev/svgjs" width="1000" height="1000" viewBox="0 0 1000 1000"><rect width="1000" height="1000" fill="#fafafa"></rect><g transform="matrix(0.7,0,0,0.7,150.11896067415722,439.7222196721312)"><svg viewBox="0 0 356 61" data-background-color="#fafafa" preserveAspectRatio="xMidYMid meet" height="171" width="1000" xmlns="http://www.w3.org/2000/svg" xmlns:xlink="http://www.w3.org/1999/xlink"><defs></defs><g id="tight-bounds" transform="matrix(1,0,0,1,-0.06049999999996203,0.21800000000001774)"><svg viewBox="0 0 356.12052 60.56375784889723" height="60.56375784889723" width="356.12052"><g><svg viewBox="0 0 356.12052 60.56375784889723" height="60.56375784889723" width="356.12052"><g><svg viewBox="0 0 356.12052 60.56375784889723" height="60.56375784889723" width="356.12052"><g><path d="M0 60.564v-60.564h356.121v60.564z" fill="#130912" stroke="transparent" stroke-width="0" rx="0%" data-fill-palette-color="tertiary"></path><path d="M3.283 57.28v-53.997h349.554v53.997z" fill="#fafafa" stroke="transparent" stroke-width="0" rx="0%" data-fill-palette-color="quaternary"></path><path d="M9.85 50.714v-40.864h336.421v40.864z" fill="#130912" stroke="transparent" stroke-width="0" data-fill-palette-color="tertiary"></path></g><g transform="matrix(1,0,0,1,19.69974,19.69974)"><svg viewBox="0 0 316.72104 21.164277848897235" height="21.164277848897235" width="316.72104"><g><svg viewBox="0 0 316.72104 21.164277848897235" height="21.164277848897235" width="316.72104"><g transform="matrix(1,0,0,1,0,0)"><svg width="316.72104" viewBox="1.149999976158142 -35 532.719970703125 35.599998474121094" height="21.164277848897235" data-palette-color="#fafafa"><path d="M34.75-25.6L23.5-25.6 23.5 0 12.45 0 12.45-25.6 1.15-25.6 1.15-34.4 34.75-34.4 34.75-25.6ZM74.05 0L63 0 63-13.05 50.85-13.05 50.85 0 39.8 0 39.8-34.4 50.85-34.4 50.85-21.85 63-21.85 63-34.4 74.05-34.4 74.05 0ZM81.45 0L81.45-34.4 111.2-34.4 111.2-26.15 92.5-26.15 92.5-21.4 108.5-21.4 108.5-13.5 92.5-13.5 92.5-8.25 111.55-8.25 111.55 0 81.45 0ZM166.84-23.85Q166.84-20.7 165.14-18.15 163.44-15.6 160.19-14.4L160.19-14.4 167.84 0 155.44 0 149.34-12.55 145.24-12.55 145.24 0 134.19 0 134.19-34.4 155.24-34.4Q158.94-34.4 161.56-32.98 164.19-31.55 165.52-29.13 166.84-26.7 166.84-23.85L166.84-23.85ZM155.59-23.4Q155.59-24.75 154.69-25.65 153.79-26.55 152.49-26.55L152.49-26.55 145.24-26.55 145.24-20.2 152.49-20.2Q153.79-20.2 154.69-21.13 155.59-22.05 155.59-23.4L155.59-23.4ZM173.09 0L173.09-34.4 202.84-34.4 202.84-26.15 184.14-26.15 184.14-21.4 200.14-21.4 200.14-13.5 184.14-13.5 184.14-8.25 203.19-8.25 203.19 0 173.09 0ZM225.59-35Q233.24-35 237.69-31.18 242.14-27.35 242.14-20.25L242.14-20.25 231.59-20.25Q231.59-23.25 230.01-25 228.44-26.75 225.54-26.75L225.54-26.75Q222.19-26.75 220.61-24.65 219.04-22.55 219.04-18.8L219.04-18.8 219.04-15.6Q219.04-11.9 220.61-9.78 222.19-7.65 225.44-7.65L225.44-7.65Q228.64-7.65 230.29-9.3 231.94-10.95 231.94-13.95L231.94-13.95 242.14-13.95Q242.14-6.9 237.81-3.15 233.49 0.6 225.59 0.6L225.59 0.6Q216.79 0.6 212.26-3.9 207.74-8.4 207.74-17.2L207.74-17.2Q207.74-26 212.26-30.5 216.79-35 225.59-35L225.59-35ZM265.18-35Q274.08-35 278.93-30.45 283.78-25.9 283.78-17.2L283.78-17.2Q283.78-8.5 278.93-3.95 274.08 0.6 265.18 0.6L265.18 0.6Q256.28 0.6 251.46-3.93 246.63-8.45 246.63-17.2L246.63-17.2Q246.63-25.95 251.46-30.48 256.28-35 265.18-35L265.18-35ZM265.18-26.75Q261.63-26.75 259.78-24.6 257.93-22.45 257.93-18.8L257.93-18.8 257.93-15.6Q257.93-11.95 259.78-9.8 261.63-7.65 265.18-7.65L265.18-7.65Q268.73-7.65 270.61-9.8 272.48-11.95 272.48-15.6L272.48-15.6 272.48-18.8Q272.48-22.45 270.61-24.6 268.73-26.75 265.18-26.75L265.18-26.75ZM322.38-23.85Q322.38-20.7 320.68-18.15 318.98-15.6 315.73-14.4L315.73-14.4 323.38 0 310.98 0 304.88-12.55 300.78-12.55 300.78 0 289.73 0 289.73-34.4 310.78-34.4Q314.48-34.4 317.11-32.98 319.73-31.55 321.06-29.13 322.38-26.7 322.38-23.85L322.38-23.85ZM311.13-23.4Q311.13-24.75 310.23-25.65 309.33-26.55 308.03-26.55L308.03-26.55 300.78-26.55 300.78-20.2 308.03-20.2Q309.33-20.2 310.23-21.13 311.13-22.05 311.13-23.4L311.13-23.4ZM343.53-34.4Q361.58-34.4 361.58-17.2L361.58-17.2Q361.58 0 343.53 0L343.53 0 328.63 0 328.63-34.4 343.53-34.4ZM339.68-26.15L339.68-8.25 343.33-8.25Q350.28-8.25 350.28-15.7L350.28-15.7 350.28-18.7Q350.28-26.15 343.33-26.15L343.33-26.15 339.68-26.15ZM398.62-35Q405.22-35 409.47-32.33 413.72-29.65 413.82-24.4L413.82-24.4 413.82-23.8 403.47-23.8 403.47-24Q403.47-25.5 402.37-26.5 401.27-27.5 399.02-27.5L399.02-27.5Q396.82-27.5 395.65-26.85 394.47-26.2 394.47-25.25L394.47-25.25Q394.47-23.9 396.07-23.25 397.67-22.6 401.22-21.9L401.22-21.9Q405.37-21.05 408.05-20.13 410.72-19.2 412.72-17.1 414.72-15 414.77-11.4L414.77-11.4Q414.77-5.3 410.65-2.35 406.52 0.6 399.62 0.6L399.62 0.6Q391.57 0.6 387.1-2.1 382.62-4.8 382.62-11.65L382.62-11.65 393.07-11.65Q393.07-9.05 394.42-8.18 395.77-7.3 398.62-7.3L398.62-7.3Q400.72-7.3 402.1-7.75 403.47-8.2 403.47-9.6L403.47-9.6Q403.47-10.85 401.95-11.48 400.42-12.1 396.97-12.8L396.97-12.8Q392.77-13.7 390.02-14.68 387.27-15.65 385.22-17.9 383.17-20.15 383.17-24L383.17-24Q383.17-29.65 387.55-32.33 391.92-35 398.62-35L398.62-35ZM454.52 0L443.47 0 443.47-13.05 431.32-13.05 431.32 0 420.27 0 420.27-34.4 431.32-34.4 431.32-21.85 443.47-21.85 443.47-34.4 454.52-34.4 454.52 0ZM479.02-35Q487.92-35 492.77-30.45 497.62-25.9 497.62-17.2L497.62-17.2Q497.62-8.5 492.77-3.95 487.92 0.6 479.02 0.6L479.02 0.6Q470.12 0.6 465.29-3.93 460.47-8.45 460.47-17.2L460.47-17.2Q460.47-25.95 465.29-30.48 470.12-35 479.02-35L479.02-35ZM479.02-26.75Q475.47-26.75 473.62-24.6 471.77-22.45 471.77-18.8L471.77-18.8 471.77-15.6Q471.77-11.95 473.62-9.8 475.47-7.65 479.02-7.65L479.02-7.65Q482.57-7.65 484.44-9.8 486.32-11.95 486.32-15.6L486.32-15.6 486.32-18.8Q486.32-22.45 484.44-24.6 482.57-26.75 479.02-26.75L479.02-26.75ZM522.87-34.4Q526.07-34.4 528.57-32.93 531.07-31.45 532.47-28.88 533.87-26.3 533.87-23.1L533.87-23.1 533.87-22.45Q533.87-19.25 532.47-16.65 531.07-14.05 528.57-12.58 526.07-11.1 522.87-11.1L522.87-11.1 514.62-11.1 514.62 0 503.57 0 503.57-34.4 522.87-34.4ZM514.62-26.25L514.62-19.15 519.17-19.15Q520.92-19.15 521.79-20.05 522.67-20.95 522.67-22.5L522.67-22.5 522.67-22.9Q522.67-24.5 521.79-25.38 520.92-26.25 519.17-26.25L519.17-26.25 514.62-26.25Z" opacity="1" transform="matrix(1,0,0,1,0,0)" fill="#fafafa" class="undefined-text-0" data-fill-palette-color="quaternary" id="text-0"></path></svg></g></svg></g></svg></g></svg></g><g></g></svg></g></svg><rect width="356.12052" height="60.56375784889723" fill="none" stroke="none" visibility="hidden"></rect></g></svg></g></svg>